<svg id="my-svg" width="100%" xmlns="http://www.w3.org/2000/svg" xmlns:xlink="http://www.w3.org/1999/xlink" class="flowchart" style="max-width: 841.219px; background-color: white;" viewBox="4 4 841.21875 612" role="graphics-document document" aria-roledescription="flowchart-elk"><style>#my-svg{font-family:Segoe UI,-apple-system,sans-serif;font-size:18px;fill:#212529;}@keyframes edge-animation-frame{from{stroke-dashoffset:0;}}@keyframes dash{to{stroke-dashoffset:0;}}#my-svg .edge-animation-slow{stroke-dasharray:9,5!important;stroke-dashoffset:900;animation:dash 50s linear infinite;stroke-linecap:round;}#my-svg .edge-animation-fast{stroke-dasharray:9,5!important;stroke-dashoffset:900;animation:dash 20s linear infinite;stroke-linecap:round;}#my-svg .error-icon{fill:#e6f7f0;}#my-svg .error-text{fill:#1b4332;stroke:#1b4332;}#my-svg .edge-thickness-normal{stroke-width:1px;}#my-svg .edge-thickness-thick{stroke-width:3.5px;}#my-svg .edge-pattern-solid{stroke-dasharray:0;}#my-svg .edge-thickness-invisible{stroke-width:0;fill:none;}#my-svg .edge-pattern-dashed{stroke-dasharray:3;}#my-svg .edge-pattern-dotted{stroke-dasharray:2;}#my-svg .marker{fill:#6c757d;stroke:#6c757d;}#my-svg .marker.cross{stroke:#6c757d;}#my-svg svg{font-family:Segoe UI,-apple-system,sans-serif;font-size:18px;}#my-svg p{margin:0;}#my-svg .label{font-family:Segoe UI,-apple-system,sans-serif;color:#1a1a2e;}#my-svg .cluster-label text{fill:#212529;}#my-svg .cluster-label span{color:#212529;}#my-svg .cluster-label span p{background-color:transparent;}#my-svg .label text,#my-svg span{fill:#1a1a2e;color:#1a1a2e;}#my-svg .node rect,#my-svg .node circle,#my-svg .node ellipse,#my-svg .node polygon,#my-svg .node path{fill:#e8f0fe;stroke:#4a90d9;stroke-width:1px;}#my-svg .rough-node .label text,#my-svg .node .label text,#my-svg .image-shape .label,#my-svg .icon-shape .label{text-anchor:middle;}#my-svg .node .katex path{fill:#000;stroke:#000;stroke-width:1px;}#my-svg .rough-node .label,#my-svg .node .label,#my-svg .image-shape .label,#my-svg .icon-shape .label{text-align:center;}#my-svg .node.clickable{cursor:pointer;}#my-svg .root .anchor path{fill:#6c757d!important;stroke-width:0;stroke:#6c757d;}#my-svg .arrowheadPath{fill:#0b0b0b;}#my-svg .edgePath .path{stroke:#6c757d;stroke-width:2.0px;}#my-svg .flowchart-link{stroke:#6c757d;fill:none;}#my-svg .edgeLabel{background-color:#ffffff;text-align:center;}#my-svg .edgeLabel p{background-color:#ffffff;}#my-svg .edgeLabel rect{opacity:0.5;background-color:#ffffff;fill:#ffffff;}#my-svg .labelBkg{background-color:rgba(255, 255, 255, 0.5);}#my-svg .cluster rect{fill:#f8f9fa;stroke:#adb5bd;stroke-width:1px;}#my-svg .cluster text{fill:#212529;}#my-svg .cluster span{color:#212529;}#my-svg div.mermaidTooltip{position:absolute;text-align:center;max-width:200px;padding:2px;font-family:Segoe UI,-apple-system,sans-serif;font-size:12px;background:#e6f7f0;border:1px solid #52b788;border-radius:2px;pointer-events:none;z-index:100;}#my-svg .flowchartTitleText{text-anchor:middle;font-size:18px;fill:#212529;}#my-svg rect.text{fill:none;stroke-width:0;}#my-svg .icon-shape,#my-svg .image-shape{background-color:#ffffff;text-align:center;}#my-svg .icon-shape p,#my-svg .image-shape p{background-color:#ffffff;padding:2px;}#my-svg .icon-shape .label rect,#my-svg .image-shape .label rect{opacity:0.5;background-color:#ffffff;fill:#ffffff;}#my-svg .label-icon{display:inline-block;height:1em;overflow:visible;vertical-align:-0.125em;}#my-svg .node .label-icon path{fill:currentColor;stroke:revert;stroke-width:revert;}#my-svg .node rect,#my-svg .node polygon,#my-svg .node circle,#my-svg .node ellipse{rx:12px!important;ry:12px!important;stroke-width:2.5px!important;filter:drop-shadow(2px 2px 4px rgba(0,0,0,0.12))!important;}#my-svg .cluster rect{rx:16px!important;ry:16px!important;stroke-width:2px!important;stroke-dasharray:none!important;}#my-svg .flowchart-link,#my-svg .edgePath path{stroke-width:2px!important;}#my-svg .edgeLabel{font-size:14px!important;background-color:#ffffff!important;padding:4px 8px!important;border-radius:6px!important;}#my-svg .label{font-weight:500!important;}#my-svg .cluster .nodeLabel{font-weight:600!important;font-size:16px!important;}#my-svg :root{--mermaid-font-family:"trebuchet ms",verdana,arial,sans-serif;}</style><g><marker id="my-svg_flowchart-elk-pointEnd" class="marker flowchart-elk" viewBox="0 0 10 10" refX="5" refY="5" markerUnits="userSpaceOnUse" markerWidth="8" markerHeight="8" orient="auto"><path d="M 0 0 L 10 5 L 0 10 z" class="arrowMarkerPath" style="stroke-width: 1; stroke-dasharray: 1, 0;"/></marker><marker id="my-svg_flowchart-elk-pointStart" class="marker flowchart-elk" viewBox="0 0 10 10" refX="4.5" refY="5" markerUnits="userSpaceOnUse" markerWidth="8" markerHeight="8" orient="auto"><path d="M 0 5 L 10 10 L 10 0 z" class="arrowMarkerPath" style="stroke-width: 1; stroke-dasharray: 1, 0;"/></marker><marker id="my-svg_flowchart-elk-circleEnd" class="marker flowchart-elk" viewBox="0 0 10 10" refX="11" refY="5" markerUnits="userSpaceOnUse" markerWidth="11" markerHeight="11" orient="auto"><circle cx="5" cy="5" r="5" class="arrowMarkerPath" style="stroke-width: 1; stroke-dasharray: 1, 0;"/></marker><marker id="my-svg_flowchart-elk-circleStart" class="marker flowchart-elk" viewBox="0 0 10 10" refX="-1" refY="5" markerUnits="userSpaceOnUse" markerWidth="11" markerHeight="11" orient="auto"><circle cx="5" cy="5" r="5" class="arrowMarkerPath" style="stroke-width: 1; stroke-dasharray: 1, 0;"/></marker><marker id="my-svg_flowchart-elk-crossEnd" class="marker cross flowchart-elk" viewBox="0 0 11 11" refX="12" refY="5.2" markerUnits="userSpaceOnUse" markerWidth="11" markerHeight="11" orient="auto"><path d="M 1,1 l 9,9 M 10,1 l -9,9" class="arrowMarkerPath" style="stroke-width: 2; stroke-dasharray: 1, 0;"/></marker><marker id="my-svg_flowchart-elk-crossStart" class="marker cross flowchart-elk" viewBox="0 0 11 11" refX="-1" refY="5.2" markerUnits="userSpaceOnUse" markerWidth="11" markerHeight="11" orient="auto"><path d="M 1,1 l 9,9 M 10,1 l -9,9" class="arrowMarkerPath" style="stroke-width: 2; stroke-dasharray: 1, 0;"/></marker></g><g class="subgraphs"/><g class="nodes"><g class="node default" id="flowchart-USER-0" transform="translate(156.56857638888889, 40.5)"><rect class="basic label-container" style="" x="-63.15625" y="-28.5" width="126.3125" height="57"/><g class="label" style="" transform="translate(-33.15625, -13.5)"><rect/><foreignObject width="66.3125" height="27"><div xmlns="http://www.w3.org/1999/xhtml" style="display: table-cell; white-space: nowrap; line-height: 1.5; max-width: 200px; text-align: center;"><span class="nodeLabel"><p>👤 User</p></span></div></foreignObject></g></g><g class="node default" id="flowchart-COORD-1" transform="translate(156.56857638888889, 244)"><rect class="basic label-container" style="fill:#4A90D9 !important;stroke:#333 !important" x="-111.9453125" y="-42" width="223.890625" height="84"/><g class="label" style="color:#fff !important" transform="translate(-81.9453125, -27)"><rect/><foreignObject width="163.890625" height="54"><div style="color: rgb(255, 255, 255) !important; display: table-cell; white-space: nowrap; line-height: 1.5; max-width: 200px; text-align: center;" xmlns="http://www.w3.org/1999/xhtml"><span style="color:#fff !important" class="nodeLabel"><p>🧠 Coordinator<br />(orchestrator mode)</p></span></div></foreignObject></g></g><g class="node default" id="flowchart-W1-3" transform="translate(195.546875, 566)"><rect class="basic label-container" style="fill:#7B68EE !important;stroke:#333 !important" x="-80.78125" y="-42" width="161.5625" height="84"/><g class="label" style="color:#fff !important" transform="translate(-50.78125, -27)"><rect/><foreignObject width="101.5625" height="54"><div style="color: rgb(255, 255, 255) !important; display: table-cell; white-space: nowrap; line-height: 1.5; max-width: 200px; text-align: center;" xmlns="http://www.w3.org/1999/xhtml"><span style="color:#fff !important" class="nodeLabel"><p>🔧 Worker 1<br />Research</p></span></div></foreignObject></g></g><g class="node default" id="flowchart-W2-5" transform="translate(499.46875, 566)"><rect class="basic label-container" style="fill:#7B68EE !important;stroke:#333 !important" x="-95.3359375" y="-42" width="190.671875" height="84"/><g class="label" style="color:#fff !important" transform="translate(-65.3359375, -27)"><rect/><foreignObject width="130.671875" height="54"><div style="color: rgb(255, 255, 255) !important; display: table-cell; white-space: nowrap; line-height: 1.5; max-width: 200px; text-align: center;" xmlns="http://www.w3.org/1999/xhtml"><span style="color:#fff !important" class="nodeLabel"><p>🔧 Worker 2<br />Implementation</p></span></div></foreignObject></g></g><g class="node default" id="flowchart-W3-7" transform="translate(730.4791666666666, 566)"><rect class="basic label-container" style="fill:#7B68EE !important;stroke:#333 !important" x="-82.15625" y="-42" width="164.3125" height="84"/><g class="label" style="color:#fff !important" transform="translate(-52.15625, -27)"><rect/><foreignObject width="104.3125" height="54"><div style="color: rgb(255, 255, 255) !important; display: table-cell; white-space: nowrap; line-height: 1.5; max-width: 200px; text-align: center;" xmlns="http://www.w3.org/1999/xhtml"><span style="color:#fff !important" class="nodeLabel"><p>🔧 Worker 3<br />Verification</p></span></div></foreignObject></g></g></g><g class="edges edgePaths"><path d="M156.569,69L156.569,198" id="L_USER_COORD_0_0" class="edge-thickness-normal edge-pattern-solid edge-thickness-normal edge-pattern-solid flowchart-link" style=";" data-edge="true" data-et="edge" data-id="L_USER_COORD_0_0" data-points="W3sieCI6MTU2LjU2ODU3NjM4ODg4ODg5LCJ5Ijo2OX0seyJ4IjoxNTYuNTY4NTc2Mzg4ODg4ODksInkiOjIwMn1d" marker-end="url(#my-svg_flowchart-elk-pointEnd)"/><path d="M119.253,286L119.253,302.667C119.253,319.333,119.253,352.667,119.615,369.805C119.977,386.943,120.701,387.886,121.535,388.719C122.368,389.552,123.311,390.276,151.81,390.638C180.31,391,236.366,391,264.865,391.362C293.365,391.724,294.307,392.448,295.141,393.281C295.974,394.114,296.698,395.057,297.06,413.112C297.422,431.167,297.422,466.333,297.06,484.388C296.698,502.443,295.974,503.386,295.141,504.219C294.307,505.052,293.365,505.776,284.313,506.138C275.26,506.5,258.099,506.5,249.047,506.862C239.995,507.224,239.052,507.948,238.219,508.781C237.385,509.614,236.661,510.557,236.299,512.445C235.938,514.333,235.938,517.167,235.938,518.583L235.938,520" id="L_COORD_W1_0_0" class="edge-thickness-normal edge-pattern-solid edge-thickness-normal edge-pattern-solid flowchart-link" style=";" data-edge="true" data-et="edge" data-id="L_COORD_W1_0_0" data-points="W3sieCI6MTE5LjI1MzQ3MjIyMjIyMjIxLCJ5IjoyODZ9LHsieCI6MTE5LjI1MzQ3MjIyMjIyMjIxLCJ5IjozOTF9LHsieCI6Mjk3LjQyMTg3NSwieSI6MzkxfSx7IngiOjI5Ny40MjE4NzUsInkiOjUwNi41fSx7IngiOjIzNS45Mzc1LCJ5Ijo1MDYuNX0seyJ4IjoyMzUuOTM3NSwieSI6NTI0fV0=" marker-end="url(#my-svg_flowchart-elk-pointEnd)"/><path d="M193.884,286L193.884,293.917C193.884,301.833,193.884,317.667,194.246,326.055C194.608,334.443,195.331,335.386,196.165,336.219C196.998,337.052,197.941,337.776,264.656,338.138C331.37,338.5,463.857,338.5,530.572,338.862C597.287,339.224,598.229,339.948,599.063,340.781C599.896,341.614,600.62,342.557,600.982,369.362C601.344,396.167,601.344,448.833,600.982,475.638C600.62,502.443,599.896,503.386,599.063,504.219C598.229,505.052,597.287,505.776,589.447,506.138C581.608,506.5,566.872,506.5,559.033,506.862C551.194,507.224,550.251,507.948,549.418,508.781C548.584,509.614,547.861,510.557,547.499,512.445C547.137,514.333,547.137,517.167,547.137,518.583L547.137,520" id="L_COORD_W2_0_0" class="edge-thickness-normal edge-pattern-solid edge-thickness-normal edge-pattern-solid flowchart-link" style=";" data-edge="true" data-et="edge" data-id="L_COORD_W2_0_0" data-points="W3sieCI6MTkzLjg4MzY4MDU1NTU1NTU0LCJ5IjoyODZ9LHsieCI6MTkzLjg4MzY4MDU1NTU1NTU0LCJ5IjozMzguNX0seyJ4Ijo2MDEuMzQzNzUsInkiOjMzOC41fSx7IngiOjYwMS4zNDM3NSwieSI6NTA2LjV9LHsieCI6NTQ3LjEzNjcxODc1LCJ5Ijo1MDYuNX0seyJ4Ijo1NDcuMTM2NzE4NzUsInkiOjUyNH1d" marker-end="url(#my-svg_flowchart-elk-pointEnd)"/><path d="M243.637,286L243.637,288.083C243.637,290.167,243.637,294.333,243.999,296.888C244.361,299.443,245.085,300.386,245.918,301.219C246.752,302.052,247.694,302.776,340.054,303.138C432.414,303.5,616.192,303.5,708.552,303.862C800.912,304.224,801.854,304.948,802.688,305.781C803.521,306.614,804.245,307.557,804.607,340.195C804.969,372.833,804.969,437.167,804.607,469.805C804.245,502.443,803.521,503.386,802.688,504.219C801.854,505.052,800.912,505.776,794.256,506.138C787.601,506.5,775.233,506.5,768.577,506.862C761.922,507.224,760.979,507.948,760.146,508.781C759.312,509.614,758.588,510.557,758.227,512.445C757.865,514.333,757.865,517.167,757.865,518.583L757.865,520" id="L_COORD_W3_0_0" class="edge-thickness-normal edge-pattern-solid edge-thickness-normal edge-pattern-solid flowchart-link" style=";" data-edge="true" data-et="edge" data-id="L_COORD_W3_0_0" data-points="W3sieCI6MjQzLjYzNzE1Mjc3Nzc3Nzc3LCJ5IjoyODZ9LHsieCI6MjQzLjYzNzE1Mjc3Nzc3Nzc3LCJ5IjozMDMuNX0seyJ4Ijo4MDQuOTY4NzUsInkiOjMwMy41fSx7IngiOjgwNC45Njg3NSwieSI6NTA2LjV9LHsieCI6NzU3Ljg2NDU4MzMzMzMzMzMsInkiOjUwNi41fSx7IngiOjc1Ny44NjQ1ODMzMzMzMzMzLCJ5Ijo1MjR9XQ==" marker-end="url(#my-svg_flowchart-elk-pointEnd)"/><path d="M195.547,524L195.547,505.583C195.547,487.167,195.547,450.333,195.185,431.445C194.823,412.557,194.099,411.614,193.266,410.781C192.432,409.948,191.49,409.224,175.823,408.862C160.157,408.5,129.767,408.5,114.1,408.138C98.434,407.776,97.491,407.052,96.658,406.219C95.824,405.386,95.101,404.443,94.739,385.055C94.377,365.667,94.377,327.833,94.377,308.917L94.377,290" id="L_W1_COORD_0_0" class="edge-thickness-normal edge-pattern-solid edge-thickness-normal edge-pattern-solid flowchart-link" style=";" data-edge="true" data-et="edge" data-id="L_W1_COORD_0_0" data-points="W3sieCI6MTk1LjU0Njg3NSwieSI6NTI0fSx7IngiOjE5NS41NDY4NzUsInkiOjQwOC41fSx7IngiOjk0LjM3NjczNjExMTExMTExLCJ5Ijo0MDguNX0seyJ4Ijo5NC4zNzY3MzYxMTExMTExMSwieSI6Mjg2fV0=" marker-end="url(#my-svg_flowchart-elk-pointEnd)"/><path d="M499.469,524L499.469,496.833C499.469,469.667,499.469,415.333,499.107,387.695C498.745,360.057,498.021,359.114,497.188,358.281C496.354,357.448,495.412,356.724,441.53,356.362C387.648,356,280.828,356,226.946,355.638C173.064,355.276,172.121,354.552,171.288,353.719C170.455,352.886,169.731,351.943,169.369,341.305C169.007,330.667,169.007,310.333,169.007,300.167L169.007,290" id="L_W2_COORD_0_0" class="edge-thickness-normal edge-pattern-solid edge-thickness-normal edge-pattern-solid flowchart-link" style=";" data-edge="true" data-et="edge" data-id="L_W2_COORD_0_0" data-points="W3sieCI6NDk5LjQ2ODc1LCJ5Ijo1MjR9LHsieCI6NDk5LjQ2ODc1LCJ5IjozNTZ9LHsieCI6MTY5LjAwNjk0NDQ0NDQ0NDQ2LCJ5IjozNTZ9LHsieCI6MTY5LjAwNjk0NDQ0NDQ0NDQ2LCJ5IjoyODZ9XQ==" marker-end="url(#my-svg_flowchart-elk-pointEnd)"/><path d="M703.094,524L703.094,491C703.094,458,703.094,392,702.732,358.529C702.37,325.057,701.646,324.114,700.813,323.281C699.979,322.448,699.037,321.724,619.51,321.362C539.983,321,381.872,321,302.345,320.638C222.818,320.276,221.875,319.552,221.041,318.719C220.208,317.886,219.484,316.943,219.122,312.138C218.76,307.333,218.76,298.667,218.76,294.333L218.76,290" id="L_W3_COORD_0_0" class="edge-thickness-normal edge-pattern-solid edge-thickness-normal edge-pattern-solid flowchart-link" style=";" data-edge="true" data-et="edge" data-id="L_W3_COORD_0_0" data-points="W3sieCI6NzAzLjA5Mzc1LCJ5Ijo1MjR9LHsieCI6NzAzLjA5Mzc1LCJ5IjozMjF9LHsieCI6MjE4Ljc2MDQxNjY2NjY2NjY2LCJ5IjozMjF9LHsieCI6MjE4Ljc2MDQxNjY2NjY2NjY2LCJ5IjoyODZ9XQ==" marker-end="url(#my-svg_flowchart-elk-pointEnd)"/><path d="M69.5,286L69.5,321.917C69.5,357.833,69.5,429.667,69.862,466.055C70.224,502.443,70.948,503.386,71.781,504.219C72.614,505.052,73.557,505.776,86.638,506.138C99.719,506.5,124.938,506.5,138.018,506.862C151.099,507.224,152.042,507.948,152.875,508.781C153.709,509.614,154.432,510.557,154.794,512.445C155.156,514.333,155.156,517.167,155.156,518.583L155.156,520" id="L_COORD_W1_2_0" class="edge-thickness-normal edge-pattern-solid edge-thickness-normal edge-pattern-solid flowchart-link" style=";" data-edge="true" data-et="edge" data-id="L_COORD_W1_2_0" data-points="W3sieCI6NjkuNSwieSI6Mjg2fSx7IngiOjY5LjUsInkiOjUwNi41fSx7IngiOjE1NS4xNTYyNSwieSI6NTA2LjV9LHsieCI6MTU1LjE1NjI1LCJ5Ijo1MjR9XQ==" marker-end="url(#my-svg_flowchart-elk-pointEnd)"/><path d="M144.13,286L144.13,299.75C144.13,313.5,144.13,341,144.492,355.221C144.854,369.443,145.578,370.386,146.411,371.219C147.245,372.052,148.187,372.776,187.749,373.138C227.311,373.5,305.491,373.5,345.053,373.862C384.615,374.224,385.557,374.948,386.391,375.781C387.224,376.614,387.948,377.557,388.31,398.529C388.672,419.5,388.672,460.5,389.034,481.471C389.396,502.443,390.12,503.386,390.953,504.219C391.786,505.052,392.729,505.776,402.055,506.138C411.382,506.5,429.091,506.5,438.417,506.862C447.744,507.224,448.686,507.948,449.52,508.781C450.353,509.614,451.077,510.557,451.439,512.445C451.801,514.333,451.801,517.167,451.801,518.583L451.801,520" id="L_COORD_W2_2_0" class="edge-thickness-normal edge-pattern-solid edge-thickness-normal edge-pattern-solid flowchart-link" style=";" data-edge="true" data-et="edge" data-id="L_COORD_W2_2_0" data-points="W3sieCI6MTQ0LjEzMDIwODMzMzMzMzMxLCJ5IjoyODZ9LHsieCI6MTQ0LjEzMDIwODMzMzMzMzMxLCJ5IjozNzMuNX0seyJ4IjozODguNjcxODc1LCJ5IjozNzMuNX0seyJ4IjozODguNjcxODc1LCJ5Ijo1MDYuNX0seyJ4Ijo0NTEuODAwNzgxMjUsInkiOjUwNi41fSx7IngiOjQ1MS44MDA3ODEyNSwieSI6NTI0fV0=" marker-end="url(#my-svg_flowchart-elk-pointEnd)"/></g><g class="edgeLabels"><g class="edgeLabel" transform="translate(156.17013888888889, 135.5)"><g class="label" data-id="L_USER_COORD_0_0" transform="translate(-55.1015625, -31.5)"><foreignObject width="110.203125" height="63"><div xmlns="http://www.w3.org/1999/xhtml" class="labelBkg" style="display: table-cell; white-space: nowrap; line-height: 1.5; max-width: 200px; text-align: center;"><span class="edgeLabel"><p>Natural language</p></span></div></foreignObject></g></g><g class="edgeLabel" transform="translate(297.046875, 457.5)"><g class="label" data-id="L_COORD_W1_0_0" transform="translate(-32.625, -31.5)"><foreignObject width="65.25" height="63"><div xmlns="http://www.w3.org/1999/xhtml" class="labelBkg" style="display: table-cell; white-space: nowrap; line-height: 1.5; max-width: 200px; text-align: center;"><span class="edgeLabel"><p>AgentTool</p></span></div></foreignObject></g></g><g class="edgeLabel" transform="translate(600.96875, 457.5)"><g class="label" data-id="L_COORD_W2_0_0" transform="translate(-32.625, -31.5)"><foreignObject width="65.25" height="63"><div xmlns="http://www.w3.org/1999/xhtml" class="labelBkg" style="display: table-cell; white-space: nowrap; line-height: 1.5; max-width: 200px; text-align: center;"><span class="edgeLabel"><p>AgentTool</p></span></div></foreignObject></g></g><g class="edgeLabel" transform="translate(804.59375, 457.5)"><g class="label" data-id="L_COORD_W3_0_0" transform="translate(-32.625, -31.5)"><foreignObject width="65.25" height="63"><div xmlns="http://www.w3.org/1999/xhtml" class="labelBkg" style="display: table-cell; white-space: nowrap; line-height: 1.5; max-width: 200px; text-align: center;"><span class="edgeLabel"><p>AgentTool</p></span></div></foreignObject></g></g><g class="edgeLabel" transform="translate(195.234375, 457.5)"><g class="label" data-id="L_W1_COORD_0_0" transform="translate(-51.6875, -31.5)"><foreignObject width="103.375" height="63"><div xmlns="http://www.w3.org/1999/xhtml" class="labelBkg" style="display: table-cell; white-space: nowrap; line-height: 1.5; max-width: 200px; text-align: center;"><span class="edgeLabel"><p>task-notification</p></span></div></foreignObject></g></g><g class="edgeLabel" transform="translate(499.15625, 457.5)"><g class="label" data-id="L_W2_COORD_0_0" transform="translate(-51.6875, -31.5)"><foreignObject width="103.375" height="63"><div xmlns="http://www.w3.org/1999/xhtml" class="labelBkg" style="display: table-cell; white-space: nowrap; line-height: 1.5; max-width: 200px; text-align: center;"><span class="edgeLabel"><p>task-notification</p></span></div></foreignObject></g></g><g class="edgeLabel" transform="translate(702.78125, 457.5)"><g class="label" data-id="L_W3_COORD_0_0" transform="translate(-51.6875, -31.5)"><foreignObject width="103.375" height="63"><div xmlns="http://www.w3.org/1999/xhtml" class="labelBkg" style="display: table-cell; white-space: nowrap; line-height: 1.5; max-width: 200px; text-align: center;"><span class="edgeLabel"><p>task-notification</p></span></div></foreignObject></g></g><g class="edgeLabel" transform="translate(69.0234375, 457.5)"><g class="label" data-id="L_COORD_W1_2_0" transform="translate(-57.0234375, -31.5)"><foreignObject width="114.046875" height="63"><div xmlns="http://www.w3.org/1999/xhtml" class="labelBkg" style="display: table-cell; white-space: nowrap; line-height: 1.5; max-width: 200px; text-align: center;"><span class="edgeLabel"><p>SendMessageTool</p></span></div></foreignObject></g></g><g class="edgeLabel" transform="translate(388.5703125, 457.5)"><g class="label" data-id="L_COORD_W2_2_0" transform="translate(-41.3984375, -31.5)"><foreignObject width="82.796875" height="63"><div xmlns="http://www.w3.org/1999/xhtml" class="labelBkg" style="display: table-cell; white-space: nowrap; line-height: 1.5; max-width: 200px; text-align: center;"><span class="edgeLabel"><p>TaskStopTool</p></span></div></foreignObject></g></g></g></svg>