<svg id="my-svg" width="100%" xmlns="http://www.w3.org/2000/svg" xmlns:xlink="http://www.w3.org/1999/xlink" class="flowchart" style="max-width: 1096.5px; background-color: white;" viewBox="-16 -18.5 1096.5 866.5" role="graphics-document document" aria-roledescription="flowchart-elk"><style>#my-svg{font-family:Segoe UI,-apple-system,sans-serif;font-size:18px;fill:#212529;}@keyframes edge-animation-frame{from{stroke-dashoffset:0;}}@keyframes dash{to{stroke-dashoffset:0;}}#my-svg .edge-animation-slow{stroke-dasharray:9,5!important;stroke-dashoffset:900;animation:dash 50s linear infinite;stroke-linecap:round;}#my-svg .edge-animation-fast{stroke-dasharray:9,5!important;stroke-dashoffset:900;animation:dash 20s linear infinite;stroke-linecap:round;}#my-svg .error-icon{fill:#e6f7f0;}#my-svg .error-text{fill:#1b4332;stroke:#1b4332;}#my-svg .edge-thickness-normal{stroke-width:1px;}#my-svg .edge-thickness-thick{stroke-width:3.5px;}#my-svg .edge-pattern-solid{stroke-dasharray:0;}#my-svg .edge-thickness-invisible{stroke-width:0;fill:none;}#my-svg .edge-pattern-dashed{stroke-dasharray:3;}#my-svg .edge-pattern-dotted{stroke-dasharray:2;}#my-svg .marker{fill:#6c757d;stroke:#6c757d;}#my-svg .marker.cross{stroke:#6c757d;}#my-svg svg{font-family:Segoe UI,-apple-system,sans-serif;font-size:18px;}#my-svg p{margin:0;}#my-svg .label{font-family:Segoe UI,-apple-system,sans-serif;color:#1a1a2e;}#my-svg .cluster-label text{fill:#212529;}#my-svg .cluster-label span{color:#212529;}#my-svg .cluster-label span p{background-color:transparent;}#my-svg .label text,#my-svg span{fill:#1a1a2e;color:#1a1a2e;}#my-svg .node rect,#my-svg .node circle,#my-svg .node ellipse,#my-svg .node polygon,#my-svg .node path{fill:#e8f0fe;stroke:#4a90d9;stroke-width:1px;}#my-svg .rough-node .label text,#my-svg .node .label text,#my-svg .image-shape .label,#my-svg .icon-shape .label{text-anchor:middle;}#my-svg .node .katex path{fill:#000;stroke:#000;stroke-width:1px;}#my-svg .rough-node .label,#my-svg .node .label,#my-svg .image-shape .label,#my-svg .icon-shape .label{text-align:center;}#my-svg .node.clickable{cursor:pointer;}#my-svg .root .anchor path{fill:#6c757d!important;stroke-width:0;stroke:#6c757d;}#my-svg .arrowheadPath{fill:#0b0b0b;}#my-svg .edgePath .path{stroke:#6c757d;stroke-width:2.0px;}#my-svg .flowchart-link{stroke:#6c757d;fill:none;}#my-svg .edgeLabel{background-color:#ffffff;text-align:center;}#my-svg .edgeLabel p{background-color:#ffffff;}#my-svg .edgeLabel rect{opacity:0.5;background-color:#ffffff;fill:#ffffff;}#my-svg .labelBkg{background-color:rgba(255, 255, 255, 0.5);}#my-svg .cluster rect{fill:#f8f9fa;stroke:#adb5bd;stroke-width:1px;}#my-svg .cluster text{fill:#212529;}#my-svg .cluster span{color:#212529;}#my-svg div.mermaidTooltip{position:absolute;text-align:center;max-width:200px;padding:2px;font-family:Segoe UI,-apple-system,sans-serif;font-size:12px;background:#e6f7f0;border:1px solid #52b788;border-radius:2px;pointer-events:none;z-index:100;}#my-svg .flowchartTitleText{text-anchor:middle;font-size:18px;fill:#212529;}#my-svg rect.text{fill:none;stroke-width:0;}#my-svg .icon-shape,#my-svg .image-shape{background-color:#ffffff;text-align:center;}#my-svg .icon-shape p,#my-svg .image-shape p{background-color:#ffffff;padding:2px;}#my-svg .icon-shape .label rect,#my-svg .image-shape .label rect{opacity:0.5;background-color:#ffffff;fill:#ffffff;}#my-svg .label-icon{display:inline-block;height:1em;overflow:visible;vertical-align:-0.125em;}#my-svg .node .label-icon path{fill:currentColor;stroke:revert;stroke-width:revert;}#my-svg .node rect,#my-svg .node polygon,#my-svg .node circle,#my-svg .node ellipse{rx:12px!important;ry:12px!important;stroke-width:2.5px!important;filter:drop-shadow(2px 2px 4px rgba(0,0,0,0.12))!important;}#my-svg .cluster rect{rx:16px!important;ry:16px!important;stroke-width:2px!important;stroke-dasharray:none!important;}#my-svg .flowchart-link,#my-svg .edgePath path{stroke-width:2px!important;}#my-svg .edgeLabel{font-size:14px!important;background-color:#ffffff!important;padding:4px 8px!important;border-radius:6px!important;}#my-svg .label{font-weight:500!important;}#my-svg .cluster .nodeLabel{font-weight:600!important;font-size:16px!important;}#my-svg :root{--mermaid-font-family:"trebuchet ms",verdana,arial,sans-serif;}</style><g><marker id="my-svg_flowchart-elk-pointEnd" class="marker flowchart-elk" viewBox="0 0 10 10" refX="5" refY="5" markerUnits="userSpaceOnUse" markerWidth="8" markerHeight="8" orient="auto"><path d="M 0 0 L 10 5 L 0 10 z" class="arrowMarkerPath" style="stroke-width: 1; stroke-dasharray: 1, 0;"/></marker><marker id="my-svg_flowchart-elk-pointStart" class="marker flowchart-elk" viewBox="0 0 10 10" refX="4.5" refY="5" markerUnits="userSpaceOnUse" markerWidth="8" markerHeight="8" orient="auto"><path d="M 0 5 L 10 10 L 10 0 z" class="arrowMarkerPath" style="stroke-width: 1; stroke-dasharray: 1, 0;"/></marker><marker id="my-svg_flowchart-elk-circleEnd" class="marker flowchart-elk" viewBox="0 0 10 10" refX="11" refY="5" markerUnits="userSpaceOnUse" markerWidth="11" markerHeight="11" orient="auto"><circle cx="5" cy="5" r="5" class="arrowMarkerPath" style="stroke-width: 1; stroke-dasharray: 1, 0;"/></marker><marker id="my-svg_flowchart-elk-circleStart" class="marker flowchart-elk" viewBox="0 0 10 10" refX="-1" refY="5" markerUnits="userSpaceOnUse" markerWidth="11" markerHeight="11" orient="auto"><circle cx="5" cy="5" r="5" class="arrowMarkerPath" style="stroke-width: 1; stroke-dasharray: 1, 0;"/></marker><marker id="my-svg_flowchart-elk-crossEnd" class="marker cross flowchart-elk" viewBox="0 0 11 11" refX="12" refY="5.2" markerUnits="userSpaceOnUse" markerWidth="11" markerHeight="11" orient="auto"><path d="M 1,1 l 9,9 M 10,1 l -9,9" class="arrowMarkerPath" style="stroke-width: 2; stroke-dasharray: 1, 0;"/></marker><marker id="my-svg_flowchart-elk-crossStart" class="marker cross flowchart-elk" viewBox="0 0 11 11" refX="-1" refY="5.2" markerUnits="userSpaceOnUse" markerWidth="11" markerHeight="11" orient="auto"><path d="M 1,1 l 9,9 M 10,1 l -9,9" class="arrowMarkerPath" style="stroke-width: 2; stroke-dasharray: 1, 0;"/></marker></g><g class="subgraphs"><g class="subgraph"><g class="cluster" id="Workers" data-look="classic"><rect style="" x="100.4609375" y="469.5" width="565.296875" height="138"/><g class="cluster-label" transform="translate(328.96875, 469.5)"><foreignObject width="108.28125" height="24"><div xmlns="http://www.w3.org/1999/xhtml" style="display: table-cell; white-space: nowrap; line-height: 1.5;"><span class="nodeLabel"><p>🔧 Teammates</p></span></div></foreignObject></g></g></g><g class="subgraph"><g class="cluster" id="FS" data-look="classic"><rect style="" x="66.25" y="675" width="657.125" height="165"/><g class="cluster-label" transform="translate(270.625, 675)"><foreignObject width="248.375" height="24"><div xmlns="http://www.w3.org/1999/xhtml" style="display: table-cell; white-space: nowrap; line-height: 1.5;"><span class="nodeLabel"><p>📁 File System (~/.claude/teams/)</p></span></div></foreignObject></g></g></g><g class="subgraph"><g class="cluster" id="Backend" data-look="classic"><rect style="" x="49" y="254.5" width="864" height="165"/><g class="cluster-label" transform="translate(433.796875, 254.5)"><foreignObject width="94.40625" height="24"><div xmlns="http://www.w3.org/1999/xhtml" style="display: table-cell; white-space: nowrap; line-height: 1.5;"><span class="nodeLabel"><p>🖥️ Backends</p></span></div></foreignObject></g></g></g><g class="subgraph"><g class="cluster" id="Leader" data-look="classic"><rect style="" x="27.0625" y="12" width="1045.4375" height="165"/><g class="cluster-label" transform="translate(490.8828125, 12)"><foreignObject width="117.796875" height="24"><div xmlns="http://www.w3.org/1999/xhtml" style="display: table-cell; white-space: nowrap; line-height: 1.5;"><span class="nodeLabel"><p>👑 Team Leader</p></span></div></foreignObject></g></g></g></g><g class="nodes"><g class="node default" id="flowchart-W1-10" transform="translate(191, 553.5)"><rect class="basic label-container" style="" x="-78.5390625" y="-42" width="157.078125" height="84"/><g class="label" style="" transform="translate(-48.5390625, -27)"><rect/><foreignObject width="97.078125" height="54"><div xmlns="http://www.w3.org/1999/xhtml" style="display: table-cell; white-space: nowrap; line-height: 1.5; max-width: 200px; text-align: center;"><span class="nodeLabel"><p>teammate-1<br />researcher</p></span></div></foreignObject></g></g><g class="node default" id="flowchart-W2-11" transform="translate(379.453125, 553.5)"><rect class="basic label-container" style="" x="-79.9140625" y="-42" width="159.828125" height="84"/><g class="label" style="" transform="translate(-49.9140625, -27)"><rect/><foreignObject width="99.828125" height="54"><div xmlns="http://www.w3.org/1999/xhtml" style="display: table-cell; white-space: nowrap; line-height: 1.5; max-width: 200px; text-align: center;"><span class="nodeLabel"><p>teammate-2<br />test-runner</p></span></div></foreignObject></g></g><g class="node default" id="flowchart-W3-12" transform="translate(571.5625, 553.5)"><rect class="basic label-container" style="" x="-82.1953125" y="-42" width="164.390625" height="84"/><g class="label" style="" transform="translate(-52.1953125, -27)"><rect/><foreignObject width="104.390625" height="54"><div xmlns="http://www.w3.org/1999/xhtml" style="display: table-cell; white-space: nowrap; line-height: 1.5; max-width: 200px; text-align: center;"><span class="nodeLabel"><p>teammate-3<br />implementer</p></span></div></foreignObject></g></g><g class="node default" id="flowchart-CONFIG-7" transform="translate(622.0703125, 786)"><rect class="basic label-container" style="" x="-89.3046875" y="-42" width="178.609375" height="84"/><g class="label" style="" transform="translate(-59.3046875, -27)"><rect/><foreignObject width="118.609375" height="54"><div xmlns="http://www.w3.org/1999/xhtml" style="display: table-cell; white-space: nowrap; line-height: 1.5; max-width: 200px; text-align: center;"><span class="nodeLabel"><p>config.json<br />Team manifest</p></span></div></foreignObject></g></g><g class="node default" id="flowchart-MBOX-8" transform="translate(191, 786)"><rect class="basic label-container" style="" x="-112.75" y="-42" width="225.5" height="84"/><g class="label" style="" transform="translate(-82.75, -27)"><rect/><foreignObject width="165.5" height="54"><div xmlns="http://www.w3.org/1999/xhtml" style="display: table-cell; white-space: nowrap; line-height: 1.5; max-width: 200px; text-align: center;"><span class="nodeLabel"><p>inboxes/{name}.json<br />Mailbox (locked)</p></span></div></foreignObject></g></g><g class="node default" id="flowchart-TASKS-9" transform="translate(418.2578125, 786)"><rect class="basic label-container" style="" x="-84.5078125" y="-28.5" width="169.015625" height="57"/><g class="label" style="" transform="translate(-54.5078125, -13.5)"><rect/><foreignObject width="109.015625" height="27"><div xmlns="http://www.w3.org/1999/xhtml" style="display: table-cell; white-space: nowrap; line-height: 1.5; max-width: 200px; text-align: center;"><span class="nodeLabel"><p>tasks/{team}/</p></span></div></foreignObject></g></g><g class="node default" id="flowchart-TMUX-4" transform="translate(191, 352)"><rect class="basic label-container" style="" x="-130" y="-55.5" width="260" height="111"/><g class="label" style="" transform="translate(-100, -40.5)"><rect/><foreignObject width="200" height="81"><div xmlns="http://www.w3.org/1999/xhtml" style="display: table; white-space: break-spaces; line-height: 1.5; max-width: 200px; text-align: center; width: 200px;"><span class="nodeLabel"><p>TmuxBackend<br />split-pane / separate-window</p></span></div></foreignObject></g></g><g class="node default" id="flowchart-ITERM-5" transform="translate(481, 352)"><rect class="basic label-container" style="" x="-130" y="-55.5" width="260" height="111"/><g class="label" style="" transform="translate(-100, -40.5)"><rect/><foreignObject width="200" height="81"><div xmlns="http://www.w3.org/1999/xhtml" style="display: table; white-space: break-spaces; line-height: 1.5; max-width: 200px; text-align: center; width: 200px;"><span class="nodeLabel"><p>ITermBackend<br />native iTerm2 panes (it2 CLI)</p></span></div></foreignObject></g></g><g class="node default" id="flowchart-INPROC-6" transform="translate(771, 352)"><rect class="basic label-container" style="" x="-130" y="-55.5" width="260" height="111"/><g class="label" style="" transform="translate(-100, -40.5)"><rect/><foreignObject width="200" height="81"><div xmlns="http://www.w3.org/1999/xhtml" style="display: table; white-space: break-spaces; line-height: 1.5; max-width: 200px; text-align: center; width: 200px;"><span class="nodeLabel"><p>InProcessBackend<br />same process, separate query loop</p></span></div></foreignObject></g></g><g class="node default" id="flowchart-TC-0" transform="translate(930.5, 109.5)"><rect class="basic label-container" style="" x="-130" y="-55.5" width="260" height="111"/><g class="label" style="" transform="translate(-100, -40.5)"><rect/><foreignObject width="200" height="81"><div xmlns="http://www.w3.org/1999/xhtml" style="display: table; white-space: break-spaces; line-height: 1.5; max-width: 200px; text-align: center; width: 200px;"><span class="nodeLabel"><p>TeamCreate<br />Create team + config.json</p></span></div></foreignObject></g></g><g class="node default" id="flowchart-SPAWN-1" transform="translate(665.8671875, 123)"><rect class="basic label-container" style="" x="-104.6328125" y="-42" width="209.265625" height="84"/><g class="label" style="" transform="translate(-74.6328125, -27)"><rect/><foreignObject width="149.265625" height="54"><div xmlns="http://www.w3.org/1999/xhtml" style="display: table-cell; white-space: nowrap; line-height: 1.5; max-width: 200px; text-align: center;"><span class="nodeLabel"><p>spawnMultiAgent<br />Spawn teammates</p></span></div></foreignObject></g></g><g class="node default" id="flowchart-SEND-2" transform="translate(401.234375, 109.5)"><rect class="basic label-container" style="" x="-130" y="-55.5" width="260" height="111"/><g class="label" style="" transform="translate(-100, -40.5)"><rect/><foreignObject width="200" height="81"><div xmlns="http://www.w3.org/1999/xhtml" style="display: table; white-space: break-spaces; line-height: 1.5; max-width: 200px; text-align: center; width: 200px;"><span class="nodeLabel"><p>SendMessage<br />DM / broadcast / shutdown</p></span></div></foreignObject></g></g><g class="node default" id="flowchart-INBOX_POLL-3" transform="translate(140.1484375, 123)"><rect class="basic label-container" style="" x="-101.0859375" y="-42" width="202.171875" height="84"/><g class="label" style="" transform="translate(-71.0859375, -27)"><rect/><foreignObject width="142.171875" height="54"><div xmlns="http://www.w3.org/1999/xhtml" style="display: table-cell; white-space: nowrap; line-height: 1.5; max-width: 200px; text-align: center;"><span class="nodeLabel"><p>useInboxPoller<br />Poll for messages</p></span></div></foreignObject></g></g></g><g class="edges edgePaths"><path d="M930.5,165L930.5,168.25C930.5,171.5,930.5,178,930.5,207.292C930.5,236.583,930.5,288.667,930.5,347.667C930.5,406.667,930.5,472.583,930.5,520.375C930.5,568.167,930.5,597.833,930.138,613.138C929.776,628.443,929.052,629.386,928.219,630.219C927.386,631.052,926.443,631.776,876.233,632.138C826.023,632.5,726.547,632.5,676.337,632.862C626.128,633.224,625.185,633.948,624.351,634.781C623.518,635.614,622.794,636.557,622.432,642.029C622.07,647.5,622.07,657.5,622.07,674.583C622.07,691.667,622.07,715.833,622.07,727.917L622.07,740" id="L_TC_CONFIG_0_0" class="edge-thickness-normal edge-pattern-solid edge-thickness-normal edge-pattern-solid flowchart-link" style=";" data-edge="true" data-et="edge" data-id="L_TC_CONFIG_0_0" data-points="W3sieCI6OTMwLjUsInkiOjE2NX0seyJ4Ijo5MzAuNSwieSI6MTg0LjV9LHsieCI6OTMwLjUsInkiOjM0MC43NX0seyJ4Ijo5MzAuNSwieSI6NTM4LjV9LHsieCI6OTMwLjUsInkiOjYzMi41fSx7IngiOjYyMi4wNzAzMTI1LCJ5Ijo2MzIuNX0seyJ4Ijo2MjIuMDcwMzEyNSwieSI6NjY3LjV9LHsieCI6NjIyLjA3MDMxMjUsInkiOjc0NH1d" marker-end="url(#my-svg_flowchart-elk-pointEnd)"/><path d="M665.867,165L665.867,168.25C665.867,171.5,665.867,178,665.867,189.167C665.867,200.333,665.867,216.167,665.505,224.555C665.143,232.943,664.419,233.886,663.586,234.719C662.753,235.552,661.81,236.276,562.194,236.638C462.578,237,264.289,237,164.673,237.362C65.057,237.724,64.114,238.448,63.281,239.281C62.448,240.114,61.724,241.057,61.362,242.945C61,244.833,61,247.667,61,249.083L61,250.5" id="L_SPAWN_Backend_0_0" class="edge-thickness-normal edge-pattern-solid edge-thickness-normal edge-pattern-solid flowchart-link" style=";" data-edge="true" data-et="edge" data-id="L_SPAWN_Backend_0_0" data-points="W3sieCI6NjY1Ljg2NzE4NzUsInkiOjE2NX0seyJ4Ijo2NjUuODY3MTg3NSwieSI6MTg0LjV9LHsieCI6NjY1Ljg2NzE4NzUsInkiOjIzN30seyJ4Ijo2MSwieSI6MjM3fSx7IngiOjYxLCJ5IjoyNTQuNX1d" marker-end="url(#my-svg_flowchart-elk-pointEnd)"/><path d="M191,407.5L191,410.75C191,414,191,420.5,191,429.583C191,438.667,191,450.333,191,463.75C191,477.167,191,492.333,191,499.917L191,507.5" id="L_TMUX_W1_0_0" class="edge-thickness-normal edge-pattern-solid edge-thickness-normal edge-pattern-solid flowchart-link" style=";" data-edge="true" data-et="edge" data-id="L_TMUX_W1_0_0" data-points="W3sieCI6MTkxLCJ5Ijo0MDcuNX0seyJ4IjoxOTEsInkiOjQyN30seyJ4IjoxOTEsInkiOjQ2Mn0seyJ4IjoxOTEsInkiOjUxMS41fV0=" marker-end="url(#my-svg_flowchart-elk-pointEnd)"/><path d="M481,407.5L481,410.75C481,414,481,420.5,481,425.833C481,431.167,481,435.333,480.638,437.888C480.276,440.443,479.552,441.386,478.719,442.219C477.886,443.052,476.943,443.776,461.214,444.138C445.484,444.5,414.969,444.5,399.24,444.862C383.51,445.224,382.568,445.948,381.734,446.781C380.901,447.614,380.177,448.557,379.815,451.112C379.453,453.667,379.453,457.833,379.453,467.5C379.453,477.167,379.453,492.333,379.453,499.917L379.453,507.5" id="L_ITERM_W2_0_0" class="edge-thickness-normal edge-pattern-solid edge-thickness-normal edge-pattern-solid flowchart-link" style=";" data-edge="true" data-et="edge" data-id="L_ITERM_W2_0_0" data-points="W3sieCI6NDgxLCJ5Ijo0MDcuNX0seyJ4Ijo0ODEsInkiOjQyN30seyJ4Ijo0ODEsInkiOjQ0NC41fSx7IngiOjM3OS40NTMxMjUsInkiOjQ0NC41fSx7IngiOjM3OS40NTMxMjUsInkiOjQ2Mn0seyJ4IjozNzkuNDUzMTI1LCJ5Ijo1MTEuNX1d" marker-end="url(#my-svg_flowchart-elk-pointEnd)"/><path d="M771,407.5L771,410.75C771,414,771,420.5,771,425.833C771,431.167,771,435.333,770.638,437.888C770.276,440.443,769.552,441.386,768.719,442.219C767.886,443.052,766.943,443.776,734.898,444.138C702.854,444.5,639.708,444.5,607.664,444.862C575.62,445.224,574.677,445.948,573.844,446.781C573.01,447.614,572.286,448.557,571.924,451.112C571.563,453.667,571.563,457.833,571.563,467.5C571.563,477.167,571.563,492.333,571.563,499.917L571.563,507.5" id="L_INPROC_W3_0_0" class="edge-thickness-normal edge-pattern-solid edge-thickness-normal edge-pattern-solid flowchart-link" style=";" data-edge="true" data-et="edge" data-id="L_INPROC_W3_0_0" data-points="W3sieCI6NzcxLCJ5Ijo0MDcuNX0seyJ4Ijo3NzEsInkiOjQyN30seyJ4Ijo3NzEsInkiOjQ0NC41fSx7IngiOjU3MS41NjI1LCJ5Ijo0NDQuNX0seyJ4Ijo1NzEuNTYyNSwieSI6NDYyfSx7IngiOjU3MS41NjI1LCJ5Ijo1MTEuNX1d" marker-end="url(#my-svg_flowchart-elk-pointEnd)"/><path d="M401.234,165L401.234,168.25C401.234,171.5,401.234,178,401.234,186.25C401.234,194.5,401.234,204.5,400.872,209.971C400.511,215.443,399.787,216.386,398.953,217.219C398.12,218.052,397.177,218.776,336.583,219.138C275.99,219.5,155.745,219.5,95.151,219.862C34.557,220.224,33.614,220.948,32.781,221.781C31.948,222.614,31.224,223.557,30.862,243.404C30.5,263.25,30.5,302,30.5,354.333C30.5,406.667,30.5,472.583,30.5,520.375C30.5,568.167,30.5,597.833,30.862,613.138C31.224,628.443,31.948,629.386,32.781,630.219C33.614,631.052,34.557,631.776,53.848,632.138C73.139,632.5,110.778,632.5,130.069,632.862C149.359,633.224,150.302,633.948,151.136,634.781C151.969,635.614,152.693,636.557,153.055,642.029C153.417,647.5,153.417,657.5,153.417,674.583C153.417,691.667,153.417,715.833,153.417,727.917L153.417,740" id="L_SEND_MBOX_0_0" class="edge-thickness-normal edge-pattern-solid edge-thickness-normal edge-pattern-solid flowchart-link" style=";" data-edge="true" data-et="edge" data-id="L_SEND_MBOX_0_0" data-points="W3sieCI6NDAxLjIzNDM3NSwieSI6MTY1fSx7IngiOjQwMS4yMzQzNzUsInkiOjE4NC41fSx7IngiOjQwMS4yMzQzNzUsInkiOjIxOS41fSx7IngiOjMwLjUsInkiOjIxOS41fSx7IngiOjMwLjUsInkiOjM0MC43NX0seyJ4IjozMC41LCJ5Ijo1MzguNX0seyJ4IjozMC41LCJ5Ijo2MzIuNX0seyJ4IjoxNTMuNDE2NjY2NjY2NjY2NjksInkiOjYzMi41fSx7IngiOjE1My40MTY2NjY2NjY2NjY2OSwieSI6NjY3LjV9LHsieCI6MTUzLjQxNjY2NjY2NjY2NjY5LCJ5Ijo3NDR9XQ==" marker-end="url(#my-svg_flowchart-elk-pointEnd)"/><path d="M191,595.5L191,598.75C191,602,191,608.5,191,620.5C191,632.5,191,650,191,670.833C191,691.667,191,715.833,191,727.917L191,740" id="L_W1_MBOX_0_0" class="edge-thickness-normal edge-pattern-solid edge-thickness-normal edge-pattern-solid flowchart-link" style=";" data-edge="true" data-et="edge" data-id="L_W1_MBOX_0_0" data-points="W3sieCI6MTkxLCJ5Ijo1OTUuNX0seyJ4IjoxOTEsInkiOjYxNX0seyJ4IjoxOTEsInkiOjY2Ny41fSx7IngiOjE5MSwieSI6NzQ0fV0=" marker-end="url(#my-svg_flowchart-elk-pointEnd)"/><path d="M379.453,595.5L379.453,598.75C379.453,602,379.453,608.5,379.453,613.833C379.453,619.167,379.453,623.333,379.091,625.888C378.729,628.443,378.005,629.386,377.172,630.219C376.339,631.052,375.396,631.776,351.446,632.138C327.497,632.5,280.54,632.5,256.59,632.862C232.641,633.224,231.698,633.948,230.864,634.781C230.031,635.614,229.307,636.557,228.945,642.029C228.583,647.5,228.583,657.5,228.583,674.583C228.583,691.667,228.583,715.833,228.583,727.917L228.583,740" id="L_W2_MBOX_0_0" class="edge-thickness-normal edge-pattern-solid edge-thickness-normal edge-pattern-solid flowchart-link" style=";" data-edge="true" data-et="edge" data-id="L_W2_MBOX_0_0" data-points="W3sieCI6Mzc5LjQ1MzEyNSwieSI6NTk1LjV9LHsieCI6Mzc5LjQ1MzEyNSwieSI6NjE1fSx7IngiOjM3OS40NTMxMjUsInkiOjYzMi41fSx7IngiOjIyOC41ODMzMzMzMzMzMzMzMSwieSI6NjMyLjV9LHsieCI6MjI4LjU4MzMzMzMzMzMzMzMxLCJ5Ijo2NjcuNX0seyJ4IjoyMjguNTgzMzMzMzMzMzMzMzEsInkiOjc0NH1d" marker-end="url(#my-svg_flowchart-elk-pointEnd)"/><path d="M571.563,595.5L571.563,598.75C571.563,602,571.563,608.5,571.563,616.75C571.563,625,571.563,635,571.201,640.471C570.839,645.943,570.115,646.886,569.281,647.719C568.448,648.552,567.505,649.276,517.801,649.638C468.097,650,369.632,650,319.928,650.362C270.224,650.724,269.281,651.448,268.448,652.281C267.614,653.114,266.891,654.057,266.529,656.612C266.167,659.167,266.167,663.333,266.167,677.5C266.167,691.667,266.167,715.833,266.167,727.917L266.167,740" id="L_W3_MBOX_0_0" class="edge-thickness-normal edge-pattern-solid edge-thickness-normal edge-pattern-solid flowchart-link" style=";" data-edge="true" data-et="edge" data-id="L_W3_MBOX_0_0" data-points="W3sieCI6NTcxLjU2MjUsInkiOjU5NS41fSx7IngiOjU3MS41NjI1LCJ5Ijo2MTV9LHsieCI6NTcxLjU2MjUsInkiOjY1MH0seyJ4IjoyNjYuMTY2NjY2NjY2NjY2NjMsInkiOjY1MH0seyJ4IjoyNjYuMTY2NjY2NjY2NjY2NjMsInkiOjY2Ny41fSx7IngiOjI2Ni4xNjY2NjY2NjY2NjY2MywieSI6NzQ0fV0=" marker-end="url(#my-svg_flowchart-elk-pointEnd)"/><path d="M140.148,165L140.148,168.25C140.148,171.5,140.148,178,140.148,183.333C140.148,188.667,140.148,192.833,139.787,195.388C139.425,197.943,138.701,198.886,137.867,199.719C137.034,200.552,136.091,201.276,115.928,201.638C95.766,202,56.383,202,36.22,202.362C16.057,202.724,15.114,203.448,14.281,204.281C13.448,205.114,12.724,206.057,12.362,228.82C12,251.583,12,296.167,12,351.417C12,406.667,12,472.583,12,523.292C12,574,12,609.5,12.362,627.721C12.724,645.943,13.448,646.886,14.281,647.719C15.114,648.552,16.057,649.276,32.167,649.638C48.278,650,79.556,650,95.666,650.362C111.776,650.724,112.719,651.448,113.552,652.281C114.386,653.114,115.109,654.057,115.471,656.612C115.833,659.167,115.833,663.333,115.833,677.5C115.833,691.667,115.833,715.833,115.833,727.917L115.833,740" id="L_INBOX_POLL_MBOX_0_0" class="edge-thickness-normal edge-pattern-solid edge-thickness-normal edge-pattern-solid flowchart-link" style=";" data-edge="true" data-et="edge" data-id="L_INBOX_POLL_MBOX_0_0" data-points="W3sieCI6MTQwLjE0ODQzNzUsInkiOjE2NX0seyJ4IjoxNDAuMTQ4NDM3NSwieSI6MTg0LjV9LHsieCI6MTQwLjE0ODQzNzUsInkiOjIwMn0seyJ4IjoxMiwieSI6MjAyfSx7IngiOjEyLCJ5IjozNDAuNzV9LHsieCI6MTIsInkiOjUzOC41fSx7IngiOjEyLCJ5Ijo2NTB9LHsieCI6MTE1LjgzMzMzMzMzMzMzMzM0LCJ5Ijo2NTB9LHsieCI6MTE1LjgzMzMzMzMzMzMzMzM0LCJ5Ijo2NjcuNX0seyJ4IjoxMTUuODMzMzMzMzMzMzMzMzQsInkiOjc0NH1d" marker-end="url(#my-svg_flowchart-elk-pointEnd)"/></g><g class="edgeLabels"><g class="edgeLabel"><g class="label" data-id="L_TC_CONFIG_0_0" transform="translate(-8, -10.5)"><foreignObject width="16" height="21"><div xmlns="http://www.w3.org/1999/xhtml" class="labelBkg" style="display: table-cell; white-space: nowrap; line-height: 1.5; max-width: 200px; text-align: center;"><span class="edgeLabel"></span></div></foreignObject></g></g><g class="edgeLabel"><g class="label" data-id="L_SPAWN_Backend_0_0" transform="translate(-8, -10.5)"><foreignObject width="16" height="21"><div xmlns="http://www.w3.org/1999/xhtml" class="labelBkg" style="display: table-cell; white-space: nowrap; line-height: 1.5; max-width: 200px; text-align: center;"><span class="edgeLabel"></span></div></foreignObject></g></g><g class="edgeLabel"><g class="label" data-id="L_TMUX_W1_0_0" transform="translate(-8, -10.5)"><foreignObject width="16" height="21"><div xmlns="http://www.w3.org/1999/xhtml" class="labelBkg" style="display: table-cell; white-space: nowrap; line-height: 1.5; max-width: 200px; text-align: center;"><span class="edgeLabel"></span></div></foreignObject></g></g><g class="edgeLabel"><g class="label" data-id="L_ITERM_W2_0_0" transform="translate(-8, -10.5)"><foreignObject width="16" height="21"><div xmlns="http://www.w3.org/1999/xhtml" class="labelBkg" style="display: table-cell; white-space: nowrap; line-height: 1.5; max-width: 200px; text-align: center;"><span class="edgeLabel"></span></div></foreignObject></g></g><g class="edgeLabel"><g class="label" data-id="L_INPROC_W3_0_0" transform="translate(-8, -10.5)"><foreignObject width="16" height="21"><div xmlns="http://www.w3.org/1999/xhtml" class="labelBkg" style="display: table-cell; white-space: nowrap; line-height: 1.5; max-width: 200px; text-align: center;"><span class="edgeLabel"></span></div></foreignObject></g></g><g class="edgeLabel"><g class="label" data-id="L_SEND_MBOX_0_0" transform="translate(-8, -10.5)"><foreignObject width="16" height="21"><div xmlns="http://www.w3.org/1999/xhtml" class="labelBkg" style="display: table-cell; white-space: nowrap; line-height: 1.5; max-width: 200px; text-align: center;"><span class="edgeLabel"></span></div></foreignObject></g></g><g class="edgeLabel"><g class="label" data-id="L_W1_MBOX_0_0" transform="translate(-8, -10.5)"><foreignObject width="16" height="21"><div xmlns="http://www.w3.org/1999/xhtml" class="labelBkg" style="display: table-cell; white-space: nowrap; line-height: 1.5; max-width: 200px; text-align: center;"><span class="edgeLabel"></span></div></foreignObject></g></g><g class="edgeLabel"><g class="label" data-id="L_W2_MBOX_0_0" transform="translate(-8, -10.5)"><foreignObject width="16" height="21"><div xmlns="http://www.w3.org/1999/xhtml" class="labelBkg" style="display: table-cell; white-space: nowrap; line-height: 1.5; max-width: 200px; text-align: center;"><span class="edgeLabel"></span></div></foreignObject></g></g><g class="edgeLabel"><g class="label" data-id="L_W3_MBOX_0_0" transform="translate(-8, -10.5)"><foreignObject width="16" height="21"><div xmlns="http://www.w3.org/1999/xhtml" class="labelBkg" style="display: table-cell; white-space: nowrap; line-height: 1.5; max-width: 200px; text-align: center;"><span class="edgeLabel"></span></div></foreignObject></g></g><g class="edgeLabel"><g class="label" data-id="L_INBOX_POLL_MBOX_0_0" transform="translate(-8, -10.5)"><foreignObject width="16" height="21"><div xmlns="http://www.w3.org/1999/xhtml" class="labelBkg" style="display: table-cell; white-space: nowrap; line-height: 1.5; max-width: 200px; text-align: center;"><span class="edgeLabel"></span></div></foreignObject></g></g></g></svg>