<svg id="my-svg" width="100%" xmlns="http://www.w3.org/2000/svg" xmlns:xlink="http://www.w3.org/1999/xlink" class="flowchart" style="max-width: 813.633px; background-color: white;" viewBox="-16 -18.5 813.6328125 1253.409423828125" role="graphics-document document" aria-roledescription="flowchart-elk"><style>#my-svg{font-family:Segoe UI,-apple-system,sans-serif;font-size:18px;fill:#212529;}@keyframes edge-animation-frame{from{stroke-dashoffset:0;}}@keyframes dash{to{stroke-dashoffset:0;}}#my-svg .edge-animation-slow{stroke-dasharray:9,5!important;stroke-dashoffset:900;animation:dash 50s linear infinite;stroke-linecap:round;}#my-svg .edge-animation-fast{stroke-dasharray:9,5!important;stroke-dashoffset:900;animation:dash 20s linear infinite;stroke-linecap:round;}#my-svg .error-icon{fill:#e6f7f0;}#my-svg .error-text{fill:#1b4332;stroke:#1b4332;}#my-svg .edge-thickness-normal{stroke-width:1px;}#my-svg .edge-thickness-thick{stroke-width:3.5px;}#my-svg .edge-pattern-solid{stroke-dasharray:0;}#my-svg .edge-thickness-invisible{stroke-width:0;fill:none;}#my-svg .edge-pattern-dashed{stroke-dasharray:3;}#my-svg .edge-pattern-dotted{stroke-dasharray:2;}#my-svg .marker{fill:#6c757d;stroke:#6c757d;}#my-svg .marker.cross{stroke:#6c757d;}#my-svg svg{font-family:Segoe UI,-apple-system,sans-serif;font-size:18px;}#my-svg p{margin:0;}#my-svg .label{font-family:Segoe UI,-apple-system,sans-serif;color:#1a1a2e;}#my-svg .cluster-label text{fill:#212529;}#my-svg .cluster-label span{color:#212529;}#my-svg .cluster-label span p{background-color:transparent;}#my-svg .label text,#my-svg span{fill:#1a1a2e;color:#1a1a2e;}#my-svg .node rect,#my-svg .node circle,#my-svg .node ellipse,#my-svg .node polygon,#my-svg .node path{fill:#e8f0fe;stroke:#4a90d9;stroke-width:1px;}#my-svg .rough-node .label text,#my-svg .node .label text,#my-svg .image-shape .label,#my-svg .icon-shape .label{text-anchor:middle;}#my-svg .node .katex path{fill:#000;stroke:#000;stroke-width:1px;}#my-svg .rough-node .label,#my-svg .node .label,#my-svg .image-shape .label,#my-svg .icon-shape .label{text-align:center;}#my-svg .node.clickable{cursor:pointer;}#my-svg .root .anchor path{fill:#6c757d!important;stroke-width:0;stroke:#6c757d;}#my-svg .arrowheadPath{fill:#0b0b0b;}#my-svg .edgePath .path{stroke:#6c757d;stroke-width:2.0px;}#my-svg .flowchart-link{stroke:#6c757d;fill:none;}#my-svg .edgeLabel{background-color:#ffffff;text-align:center;}#my-svg .edgeLabel p{background-color:#ffffff;}#my-svg .edgeLabel rect{opacity:0.5;background-color:#ffffff;fill:#ffffff;}#my-svg .labelBkg{background-color:rgba(255, 255, 255, 0.5);}#my-svg .cluster rect{fill:#f8f9fa;stroke:#adb5bd;stroke-width:1px;}#my-svg .cluster text{fill:#212529;}#my-svg .cluster span{color:#212529;}#my-svg div.mermaidTooltip{position:absolute;text-align:center;max-width:200px;padding:2px;font-family:Segoe UI,-apple-system,sans-serif;font-size:12px;background:#e6f7f0;border:1px solid #52b788;border-radius:2px;pointer-events:none;z-index:100;}#my-svg .flowchartTitleText{text-anchor:middle;font-size:18px;fill:#212529;}#my-svg rect.text{fill:none;stroke-width:0;}#my-svg .icon-shape,#my-svg .image-shape{background-color:#ffffff;text-align:center;}#my-svg .icon-shape p,#my-svg .image-shape p{background-color:#ffffff;padding:2px;}#my-svg .icon-shape .label rect,#my-svg .image-shape .label rect{opacity:0.5;background-color:#ffffff;fill:#ffffff;}#my-svg .label-icon{display:inline-block;height:1em;overflow:visible;vertical-align:-0.125em;}#my-svg .node .label-icon path{fill:currentColor;stroke:revert;stroke-width:revert;}#my-svg .node rect,#my-svg .node polygon,#my-svg .node circle,#my-svg .node ellipse{rx:12px!important;ry:12px!important;stroke-width:2.5px!important;filter:drop-shadow(2px 2px 4px rgba(0,0,0,0.12))!important;}#my-svg .cluster rect{rx:16px!important;ry:16px!important;stroke-width:2px!important;stroke-dasharray:none!important;}#my-svg .flowchart-link,#my-svg .edgePath path{stroke-width:2px!important;}#my-svg .edgeLabel{font-size:14px!important;background-color:#ffffff!important;padding:4px 8px!important;border-radius:6px!important;}#my-svg .label{font-weight:500!important;}#my-svg .cluster .nodeLabel{font-weight:600!important;font-size:16px!important;}#my-svg :root{--mermaid-font-family:"trebuchet ms",verdana,arial,sans-serif;}</style><g><marker id="my-svg_flowchart-elk-pointEnd" class="marker flowchart-elk" viewBox="0 0 10 10" refX="5" refY="5" markerUnits="userSpaceOnUse" markerWidth="8" markerHeight="8" orient="auto"><path d="M 0 0 L 10 5 L 0 10 z" class="arrowMarkerPath" style="stroke-width: 1; stroke-dasharray: 1, 0;"/></marker><marker id="my-svg_flowchart-elk-pointStart" class="marker flowchart-elk" viewBox="0 0 10 10" refX="4.5" refY="5" markerUnits="userSpaceOnUse" markerWidth="8" markerHeight="8" orient="auto"><path d="M 0 5 L 10 10 L 10 0 z" class="arrowMarkerPath" style="stroke-width: 1; stroke-dasharray: 1, 0;"/></marker><marker id="my-svg_flowchart-elk-circleEnd" class="marker flowchart-elk" viewBox="0 0 10 10" refX="11" refY="5" markerUnits="userSpaceOnUse" markerWidth="11" markerHeight="11" orient="auto"><circle cx="5" cy="5" r="5" class="arrowMarkerPath" style="stroke-width: 1; stroke-dasharray: 1, 0;"/></marker><marker id="my-svg_flowchart-elk-circleStart" class="marker flowchart-elk" viewBox="0 0 10 10" refX="-1" refY="5" markerUnits="userSpaceOnUse" markerWidth="11" markerHeight="11" orient="auto"><circle cx="5" cy="5" r="5" class="arrowMarkerPath" style="stroke-width: 1; stroke-dasharray: 1, 0;"/></marker><marker id="my-svg_flowchart-elk-crossEnd" class="marker cross flowchart-elk" viewBox="0 0 11 11" refX="12" refY="5.2" markerUnits="userSpaceOnUse" markerWidth="11" markerHeight="11" orient="auto"><path d="M 1,1 l 9,9 M 10,1 l -9,9" class="arrowMarkerPath" style="stroke-width: 2; stroke-dasharray: 1, 0;"/></marker><marker id="my-svg_flowchart-elk-crossStart" class="marker cross flowchart-elk" viewBox="0 0 11 11" refX="-1" refY="5.2" markerUnits="userSpaceOnUse" markerWidth="11" markerHeight="11" orient="auto"><path d="M 1,1 l 9,9 M 10,1 l -9,9" class="arrowMarkerPath" style="stroke-width: 2; stroke-dasharray: 1, 0;"/></marker></g><g class="subgraphs"><g class="subgraph"><g class="cluster" id="subGraph2" data-look="classic"><rect style="" x="12" y="37" width="689.1640625" height="789"/><g class="cluster-label" transform="translate(216.02734375, 37)"><foreignObject width="281.109375" height="24"><div xmlns="http://www.w3.org/1999/xhtml" style="display: table-cell; white-space: nowrap; line-height: 1.5;"><span class="nodeLabel"><p>Local Machine (claude remote-control)</p></span></div></foreignObject></g></g></g><g class="subgraph"><g class="cluster" id="subGraph0" data-look="classic"><rect style="" x="22.875" y="974" width="301.5328125" height="228"/><g class="cluster-label" transform="translate(107.21953124999999, 974)"><foreignObject width="132.84375" height="24"><div xmlns="http://www.w3.org/1999/xhtml" style="display: table-cell; white-space: nowrap; line-height: 1.5;"><span class="nodeLabel"><p>claude.ai / Web UI</p></span></div></foreignObject></g></g></g><g class="subgraph"><g class="cluster" id="subGraph1" data-look="classic"><rect style="" x="137.5859375" y="641.5" width="551.578125" height="165"/><g class="cluster-label" transform="translate(357.171875, 641.5)"><foreignObject width="112.40625" height="24"><div xmlns="http://www.w3.org/1999/xhtml" style="display: table-cell; white-space: nowrap; line-height: 1.5;"><span class="nodeLabel"><p>Transport Layer</p></span></div></foreignObject></g></g></g></g><g class="nodes"><g class="node default" id="flowchart-V1-6" transform="translate(277.640625, 739)"><rect class="basic label-container" style="" x="-128.0546875" y="-42" width="256.109375" height="84"/><g class="label" style="" transform="translate(-98.0546875, -27)"><rect/><foreignObject width="196.109375" height="54"><div xmlns="http://www.w3.org/1999/xhtml" style="display: table-cell; white-space: nowrap; line-height: 1.5; max-width: 200px; text-align: center;"><span class="nodeLabel"><p>v1: HybridTransport<br />WS reads + POST writes</p></span></div></foreignObject></g></g><g class="node default" id="flowchart-V2-7" transform="translate(556.4296875, 739)"><rect class="basic label-container" style="" x="-120.734375" y="-55.5" width="241.46875" height="111"/><g class="label" style="" transform="translate(-90.734375, -40.5)"><rect/><foreignObject width="181.46875" height="81"><div xmlns="http://www.w3.org/1999/xhtml" style="display: table-cell; white-space: nowrap; line-height: 1.5; max-width: 200px; text-align: center;"><span class="nodeLabel"><p>v2: SSE + CCRClient<br />SSETransport reads<br />POST /worker/* writes</p></span></div></foreignObject></g></g><g class="node default" id="flowchart-POLL-2" transform="translate(150.453125, 134.5)"><rect class="basic label-container" style="" x="-86.6015625" y="-28.5" width="173.203125" height="57"/><g class="label" style="" transform="translate(-56.6015625, -13.5)"><rect/><foreignObject width="113.203125" height="27"><div xmlns="http://www.w3.org/1999/xhtml" style="display: table-cell; white-space: nowrap; line-height: 1.5; max-width: 200px; text-align: center;"><span class="nodeLabel"><p>pollForWork()</p></span></div></foreignObject></g></g><g class="node default" id="flowchart-SPAWN-3" transform="translate(320.9739583333333, 314.5)"><rect class="basic label-container" style="" x="-122.2421875" y="-28.5" width="244.484375" height="57"/><g class="label" style="" transform="translate(-92.2421875, -13.5)"><rect/><foreignObject width="184.484375" height="27"><div xmlns="http://www.w3.org/1999/xhtml" style="display: table-cell; white-space: nowrap; line-height: 1.5; max-width: 200px; text-align: center;"><span class="nodeLabel"><p>sessionRunner.spawn()</p></span></div></foreignObject></g></g><g class="node default" id="flowchart-CHILD-5" transform="translate(320.9739583333333, 442)"><rect class="basic label-container" style="" x="-130" y="-69" width="260" height="138"/><g class="label" style="" transform="translate(-100, -54)"><rect/><foreignObject width="200" height="108"><div xmlns="http://www.w3.org/1999/xhtml" style="display: table; white-space: break-spaces; line-height: 1.5; max-width: 200px; text-align: center; width: 200px;"><span class="nodeLabel"><p>Child claude --print<br />--sdk-url --session-id<br />--input-format stream-json</p></span></div></foreignObject></g></g><g class="node default" id="flowchart-HB-9" transform="translate(121.5859375, 224.5)"><rect class="basic label-container" style="" x="-97.5859375" y="-28.5" width="195.171875" height="57"/><g class="label" style="" transform="translate(-67.5859375, -13.5)"><rect/><foreignObject width="135.171875" height="27"><div xmlns="http://www.w3.org/1999/xhtml" style="display: table-cell; white-space: nowrap; line-height: 1.5; max-width: 200px; text-align: center;"><span class="nodeLabel"><p>heartbeatWork()</p></span></div></foreignObject></g></g><g class="node default" id="flowchart-USER-0" transform="translate(140.7578125, 1044.5)"><rect class="basic label-container" style="" x="-105.8828125" y="-28.5" width="211.765625" height="57"/><g class="label" style="" transform="translate(-75.8828125, -13.5)"><rect/><foreignObject width="151.765625" height="27"><div xmlns="http://www.w3.org/1999/xhtml" style="display: table-cell; white-space: nowrap; line-height: 1.5; max-width: 200px; text-align: center;"><span class="nodeLabel"><p>User types prompt</p></span></div></foreignObject></g></g><g class="node default" id="flowchart-SERVER-1" transform="translate(205.1265625, 1161.5)"><rect class="basic label-container" style="" x="-107.28125" y="-28.5" width="214.5625" height="57"/><g class="label" style="" transform="translate(-77.28125, -13.5)"><rect/><foreignObject width="154.5625" height="27"><div xmlns="http://www.w3.org/1999/xhtml" style="display: table-cell; white-space: nowrap; line-height: 1.5; max-width: 200px; text-align: center;"><span class="nodeLabel"><p>Anthropic Backend</p></span></div></foreignObject></g></g></g><g class="edges edgePaths"><path d="M140.758,1073L140.758,1129" id="L_USER_SERVER_0_0" class="edge-thickness-normal edge-pattern-solid edge-thickness-normal edge-pattern-solid flowchart-link" style=";" data-edge="true" data-et="edge" data-id="L_USER_SERVER_0_0" data-points="W3sieCI6MTQwLjc1NzgxMjUsInkiOjEwNzN9LHsieCI6MTQwLjc1NzgxMjUsInkiOjExMzN9XQ==" marker-end="url(#my-svg_flowchart-elk-pointEnd)"/><path d="M179.32,163L179.32,164.667C179.32,166.333,179.32,169.667,179.682,171.805C180.044,173.943,180.768,174.886,181.601,175.719C182.435,176.552,183.378,177.276,205.791,177.638C228.205,178,272.089,178,294.503,178.362C316.917,178.724,317.86,179.448,318.693,180.281C319.526,181.114,320.25,182.057,320.612,199.029C320.974,216,320.974,249,320.974,265.5L320.974,282" id="L_POLL_SPAWN_0_0" class="edge-thickness-normal edge-pattern-solid edge-thickness-normal edge-pattern-solid flowchart-link" style=";" data-edge="true" data-et="edge" data-id="L_POLL_SPAWN_0_0" data-points="W3sieCI6MTc5LjMyMDMxMjUsInkiOjE2M30seyJ4IjoxNzkuMzIwMzEyNSwieSI6MTc4fSx7IngiOjMyMC45NzM5NTgzMzMzMzMzLCJ5IjoxNzh9LHsieCI6MzIwLjk3Mzk1ODMzMzMzMzMsInkiOjI4Nn1d" marker-end="url(#my-svg_flowchart-elk-pointEnd)"/><path d="M320.974,343L320.974,369" id="L_SPAWN_CHILD_0_0" class="edge-thickness-normal edge-pattern-solid edge-thickness-normal edge-pattern-solid flowchart-link" style=";" data-edge="true" data-et="edge" data-id="L_SPAWN_CHILD_0_0" data-points="W3sieCI6MzIwLjk3Mzk1ODMzMzMzMzMsInkiOjM0M30seyJ4IjozMjAuOTczOTU4MzMzMzMzMywieSI6MzczfV0=" marker-end="url(#my-svg_flowchart-elk-pointEnd)"/><path d="M121.586,163L121.586,192" id="L_POLL_HB_0_0" class="edge-thickness-normal edge-pattern-solid edge-thickness-normal edge-pattern-solid flowchart-link" style=";" data-edge="true" data-et="edge" data-id="L_POLL_HB_0_0" data-points="W3sieCI6MTIxLjU4NTkzNzUsInkiOjE2M30seyJ4IjoxMjEuNTg1OTM3NSwieSI6MTk2fV0=" marker-end="url(#my-svg_flowchart-elk-pointEnd)"/><path d="M121.586,253L121.586,349.75C121.586,446.5,121.586,640,121.586,747.833C121.586,855.667,121.586,877.833,121.586,896.25C121.586,914.667,121.586,929.333,121.948,937.138C122.31,944.943,123.034,945.886,123.867,946.719C124.7,947.552,125.643,948.276,147.79,948.638C169.938,949,213.289,949,235.436,949.362C257.583,949.724,258.526,950.448,259.36,951.281C260.193,952.114,260.917,953.057,261.279,955.612C261.641,958.167,261.641,962.333,261.641,983.833C261.641,1005.333,261.641,1044.167,261.279,1064.055C260.917,1083.943,260.193,1084.886,259.36,1085.719C258.526,1086.552,257.583,1087.276,245.784,1087.638C233.984,1088,211.327,1088,199.527,1088.362C187.728,1088.724,186.785,1089.448,185.951,1090.281C185.118,1091.114,184.394,1092.057,184.032,1098.529C183.67,1105,183.67,1117,183.67,1123L183.67,1129" id="L_HB_SERVER_0_0" class="edge-thickness-normal edge-pattern-solid edge-thickness-normal edge-pattern-solid flowchart-link" style=";" data-edge="true" data-et="edge" data-id="L_HB_SERVER_0_0" data-points="W3sieCI6MTIxLjU4NTkzNzUsInkiOjI1M30seyJ4IjoxMjEuNTg1OTM3NSwieSI6ODMzLjV9LHsieCI6MTIxLjU4NTkzNzUsInkiOjkwMH0seyJ4IjoxMjEuNTg1OTM3NSwieSI6OTQ5fSx7IngiOjI2MS42NDA2MjUsInkiOjk0OX0seyJ4IjoyNjEuNjQwNjI1LCJ5Ijo5NjYuNX0seyJ4IjoyNjEuNjQwNjI1LCJ5IjoxMDg4fSx7IngiOjE4My42NzAzMTI1MDAwMDAwMiwieSI6MTA4OH0seyJ4IjoxODMuNjcwMzEyNTAwMDAwMDIsInkiOjExMzN9XQ==" marker-end="url(#my-svg_flowchart-elk-pointEnd)"/><path d="M205.127,1190L205.127,1193.25C205.127,1196.5,205.127,1203,205.127,1208.333C205.127,1213.667,205.127,1217.833,205.488,1220.388C205.85,1222.943,206.574,1223.886,207.408,1224.719C208.241,1225.552,209.184,1226.276,293.578,1226.638C377.972,1227,545.818,1227,630.213,1226.638C714.607,1226.276,715.55,1225.552,716.383,1224.719C717.216,1223.886,717.94,1222.943,718.302,1200.138C718.664,1177.333,718.664,1132.667,718.664,1000.917C718.664,869.167,718.664,650.333,718.664,471.833C718.664,293.333,718.664,155.167,718.302,85.612C717.94,16.057,717.216,15.114,716.383,14.281C715.55,13.448,714.607,12.724,621.1,12.362C527.594,12,341.523,12,248.017,12.362C154.51,12.724,153.568,13.448,152.734,14.281C151.901,15.114,151.177,16.057,150.815,18.612C150.453,21.167,150.453,25.333,150.453,39.5C150.453,53.667,150.453,77.833,150.453,89.917L150.453,102" id="L_SERVER_POLL_0_0" class="edge-thickness-normal edge-pattern-solid edge-thickness-normal edge-pattern-solid flowchart-link" style=";" data-edge="true" data-et="edge" data-id="L_SERVER_POLL_0_0" data-points="W3sieCI6MjA1LjEyNjU2MjUsInkiOjExOTB9LHsieCI6MjA1LjEyNjU2MjUsInkiOjEyMDkuNX0seyJ4IjoyMDUuMTI2NTYyNSwieSI6MTIyN30seyJ4Ijo3MTguNjY0MDYyNSwieSI6MTIyN30seyJ4Ijo3MTguNjY0MDYyNSwieSI6MTA4OH0seyJ4Ijo3MTguNjY0MDYyNSwieSI6NDMxLjV9LHsieCI6NzE4LjY2NDA2MjUsInkiOjEyfSx7IngiOjE1MC40NTMxMjUsInkiOjEyfSx7IngiOjE1MC40NTMxMjUsInkiOjI5LjV9LHsieCI6MTUwLjQ1MzEyNSwieSI6MTA2fV0=" marker-end="url(#my-svg_flowchart-elk-pointEnd)"/><path d="M277.641,511L277.641,531.5C277.641,552,277.641,593,277.641,623.333C277.641,653.667,277.641,673.333,277.641,683.167L277.641,693" id="L_CHILD_V1_0_0" class="edge-thickness-normal edge-pattern-solid edge-thickness-normal edge-pattern-solid flowchart-link" style=";" data-edge="true" data-et="edge" data-id="L_CHILD_V1_0_0" data-points="W3sieCI6Mjc3LjY0MDYyNSwieSI6NTExfSx7IngiOjI3Ny42NDA2MjUsInkiOjYzNH0seyJ4IjoyNzcuNjQwNjI1LCJ5Ijo2OTd9XQ==" marker-end="url(#my-svg_flowchart-elk-pointEnd)"/><path d="M364.307,511L364.307,512.667C364.307,514.333,364.307,517.667,364.669,519.805C365.031,521.943,365.755,522.886,366.588,523.719C367.422,524.552,368.364,525.276,371.912,525.638C375.46,526,381.613,526,385.161,526.362C388.708,526.724,389.651,527.448,390.485,528.281C391.318,529.114,392.042,530.057,392.404,544.362C392.766,558.667,392.766,586.333,393.128,600.638C393.489,614.943,394.213,615.886,395.047,616.719C395.88,617.552,396.823,618.276,422.905,618.638C448.987,619,500.208,619,526.29,619.362C552.372,619.724,553.315,620.448,554.149,621.281C554.982,622.114,555.706,623.057,556.068,625.195C556.43,627.333,556.43,630.667,556.43,639.917C556.43,649.167,556.43,664.333,556.43,671.917L556.43,679.5" id="L_CHILD_V2_0_0" class="edge-thickness-normal edge-pattern-solid edge-thickness-normal edge-pattern-solid flowchart-link" style=";" data-edge="true" data-et="edge" data-id="L_CHILD_V2_0_0" data-points="W3sieCI6MzY0LjMwNzI5MTY2NjY2NjYzLCJ5Ijo1MTF9LHsieCI6MzY0LjMwNzI5MTY2NjY2NjYzLCJ5Ijo1MjZ9LHsieCI6MzkyLjc2NTYyNSwieSI6NTI2fSx7IngiOjM5Mi43NjU2MjUsInkiOjYxOX0seyJ4Ijo1NTYuNDI5Njg3NSwieSI6NjE5fSx7IngiOjU1Ni40Mjk2ODc1LCJ5Ijo2MzR9LHsieCI6NTU2LjQyOTY4NzUsInkiOjY4My41fV0=" marker-end="url(#my-svg_flowchart-elk-pointEnd)"/><path d="M277.641,781L277.641,786.5C277.641,792,277.641,803,277.641,811.75C277.641,820.5,277.641,827,277.641,852.417C277.641,877.833,277.641,922.167,277.641,966.25C277.641,1010.333,277.641,1054.167,277.279,1076.555C276.917,1098.943,276.193,1099.886,275.36,1100.719C274.526,1101.552,273.583,1102.276,266.269,1102.638C258.955,1103,245.269,1103,237.954,1103.362C230.64,1103.724,229.697,1104.448,228.864,1105.281C228.031,1106.114,227.307,1107.057,226.945,1111.029C226.583,1115,226.583,1122,226.583,1125.5L226.583,1129" id="L_V1_SERVER_0_0" class="edge-thickness-normal edge-pattern-solid edge-thickness-normal edge-pattern-solid flowchart-link" style=";" data-edge="true" data-et="edge" data-id="L_V1_SERVER_0_0" data-points="W3sieCI6Mjc3LjY0MDYyNSwieSI6NzgxfSx7IngiOjI3Ny42NDA2MjUsInkiOjgxNH0seyJ4IjoyNzcuNjQwNjI1LCJ5Ijo4MzMuNX0seyJ4IjoyNzcuNjQwNjI1LCJ5Ijo5NjYuNX0seyJ4IjoyNzcuNjQwNjI1LCJ5IjoxMTAzfSx7IngiOjIyNi41ODI4MTI1MDAwMDAwMiwieSI6MTEwM30seyJ4IjoyMjYuNTgyODEyNTAwMDAwMDIsInkiOjExMzN9XQ==" marker-end="url(#my-svg_flowchart-elk-pointEnd)"/><path d="M556.43,794.5L556.43,797.75C556.43,801,556.43,807.5,556.43,814C556.43,820.5,556.43,827,556.43,848.667C556.43,870.333,556.43,907.167,556.068,926.055C555.706,944.943,554.982,945.886,554.149,946.719C553.315,947.552,552.372,948.276,509.77,948.638C467.167,949,382.904,949,340.301,949.362C297.698,949.724,296.755,950.448,295.922,951.281C295.088,952.114,294.364,953.057,294.003,955.612C293.641,958.167,293.641,962.333,293.641,988.833C293.641,1015.333,293.641,1064.167,293.279,1089.055C292.917,1113.943,292.193,1114.886,291.36,1115.719C290.526,1116.552,289.583,1117.276,286.754,1117.638C283.926,1118,279.21,1118,276.381,1118.362C273.553,1118.724,272.61,1119.448,271.776,1120.281C270.943,1121.114,270.219,1122.057,269.857,1123.529C269.495,1125,269.495,1127,269.495,1128L269.495,1129" id="L_V2_SERVER_0_0" class="edge-thickness-normal edge-pattern-solid edge-thickness-normal edge-pattern-solid flowchart-link" style=";" data-edge="true" data-et="edge" data-id="L_V2_SERVER_0_0" data-points="W3sieCI6NTU2LjQyOTY4NzUsInkiOjc5NC41fSx7IngiOjU1Ni40Mjk2ODc1LCJ5Ijo4MTR9LHsieCI6NTU2LjQyOTY4NzUsInkiOjgzMy41fSx7IngiOjU1Ni40Mjk2ODc1LCJ5Ijo5NDl9LHsieCI6MjkzLjY0MDYyNSwieSI6OTQ5fSx7IngiOjI5My42NDA2MjUsInkiOjk2Ni41fSx7IngiOjI5My42NDA2MjUsInkiOjExMTh9LHsieCI6MjY5LjQ5NTMxMjUsInkiOjExMTh9LHsieCI6MjY5LjQ5NTMxMjUsInkiOjExMzN9XQ==" marker-end="url(#my-svg_flowchart-elk-pointEnd)"/></g><g class="edgeLabels"><g class="edgeLabel"><g class="label" data-id="L_USER_SERVER_0_0" transform="translate(-8, -10.5)"><foreignObject width="16" height="21"><div xmlns="http://www.w3.org/1999/xhtml" class="labelBkg" style="display: table-cell; white-space: nowrap; line-height: 1.5; max-width: 200px; text-align: center;"><span class="edgeLabel"></span></div></foreignObject></g></g><g class="edgeLabel" transform="translate(320.8489583333333, 224.5)"><g class="label" data-id="L_POLL_SPAWN_0_0" transform="translate(-31.875, -31.5)"><foreignObject width="63.75" height="63"><div xmlns="http://www.w3.org/1999/xhtml" class="labelBkg" style="display: table-cell; white-space: nowrap; line-height: 1.5; max-width: 200px; text-align: center;"><span class="edgeLabel"><p>work item</p></span></div></foreignObject></g></g><g class="edgeLabel"><g class="label" data-id="L_SPAWN_CHILD_0_0" transform="translate(-8, -10.5)"><foreignObject width="16" height="21"><div xmlns="http://www.w3.org/1999/xhtml" class="labelBkg" style="display: table-cell; white-space: nowrap; line-height: 1.5; max-width: 200px; text-align: center;"><span class="edgeLabel"></span></div></foreignObject></g></g><g class="edgeLabel"><g class="label" data-id="L_POLL_HB_0_0" transform="translate(-8, -10.5)"><foreignObject width="16" height="21"><div xmlns="http://www.w3.org/1999/xhtml" class="labelBkg" style="display: table-cell; white-space: nowrap; line-height: 1.5; max-width: 200px; text-align: center;"><span class="edgeLabel"></span></div></foreignObject></g></g><g class="edgeLabel"><g class="label" data-id="L_HB_SERVER_0_0" transform="translate(-8, -10.5)"><foreignObject width="16" height="21"><div xmlns="http://www.w3.org/1999/xhtml" class="labelBkg" style="display: table-cell; white-space: nowrap; line-height: 1.5; max-width: 200px; text-align: center;"><span class="edgeLabel"></span></div></foreignObject></g></g><g class="edgeLabel" transform="translate(718.6484375, 900)"><g class="label" data-id="L_SERVER_POLL_0_0" transform="translate(-70.984375, -31.5)"><foreignObject width="141.96875" height="63"><div xmlns="http://www.w3.org/1999/xhtml" class="labelBkg" style="display: table-cell; white-space: nowrap; line-height: 1.5; max-width: 200px; text-align: center;"><span class="edgeLabel"><p>WorkResponse (JSON)</p></span></div></foreignObject></g></g><g class="edgeLabel" transform="translate(277.203125, 572.5)"><g class="label" data-id="L_CHILD_V1_0_0" transform="translate(-50.0625, -31.5)"><foreignObject width="100.125" height="63"><div xmlns="http://www.w3.org/1999/xhtml" class="labelBkg" style="display: table-cell; white-space: nowrap; line-height: 1.5; max-width: 200px; text-align: center;"><span class="edgeLabel"><p>NDJSON stdout</p></span></div></foreignObject></g></g><g class="edgeLabel" transform="translate(392.328125, 572.5)"><g class="label" data-id="L_CHILD_V2_0_0" transform="translate(-50.0625, -31.5)"><foreignObject width="100.125" height="63"><div xmlns="http://www.w3.org/1999/xhtml" class="labelBkg" style="display: table-cell; white-space: nowrap; line-height: 1.5; max-width: 200px; text-align: center;"><span class="edgeLabel"><p>NDJSON stdout</p></span></div></foreignObject></g></g><g class="edgeLabel" transform="translate(277.2421875, 900)"><g class="label" data-id="L_V1_SERVER_0_0" transform="translate(-35.6015625, -31.5)"><foreignObject width="71.203125" height="63"><div xmlns="http://www.w3.org/1999/xhtml" class="labelBkg" style="display: table-cell; white-space: nowrap; line-height: 1.5; max-width: 200px; text-align: center;"><span class="edgeLabel"><p>WebSocket</p></span></div></foreignObject></g></g><g class="edgeLabel" transform="translate(555.96875, 900)"><g class="label" data-id="L_V2_SERVER_0_0" transform="translate(-56.0390625, -31.5)"><foreignObject width="112.078125" height="63"><div xmlns="http://www.w3.org/1999/xhtml" class="labelBkg" style="display: table-cell; white-space: nowrap; line-height: 1.5; max-width: 200px; text-align: center;"><span class="edgeLabel"><p>SSE + HTTP POST</p></span></div></foreignObject></g></g></g></svg>